<?xml version="1.0" encoding="UTF-8"?> <svg xmlns="http://www.w3.org/2000/svg" viewBox="0 0 80 80"><defs><style>.cls-1,.cls-2{fill:#fff;}.cls-1,.cls-4{stroke:#333;stroke-linecap:round;stroke-linejoin:round;stroke-width:2px;}.cls-3{fill:#d4ead8;}.cls-4,.cls-6{fill:none;}.cls-5{fill:#34a551;}</style></defs><title>vulnerabilities</title><g id="vulnerabilities"><rect id="_Trazado_" data-name="&lt;Trazado&gt;" class="cls-1" x="8" y="3" width="64" height="74" rx="4" ry="4"></rect><path class="cls-2" d="M30,28V24.38A9.38,9.38,0,0,1,39.38,15h1.24A9.38,9.38,0,0,1,50,24.38V28Z"></path><rect class="cls-2" x="25" y="25.38" width="30" height="38" rx="14.74" ry="14.74"></rect><path class="cls-3" d="M26.5,36c0-5.5,5.58-11,13.5-11h0c7.92,0,13.5,5.5,13.5,11Z"></path><rect class="cls-4" x="25" y="25.38" width="30" height="38" rx="14.74" ry="14.74"></rect><path class="cls-4" d="M62,65V59.32a2,2,0,0,0-1.21-1.84L55,55"></path><path class="cls-4" d="M18,65V59.32a2,2,0,0,1,1.21-1.84L25,55"></path><line class="cls-1" x1="55" y1="44" x2="63" y2="44"></line><path class="cls-4" d="M30,28V24.38A9.38,9.38,0,0,1,39.38,15h1.24A9.38,9.38,0,0,1,50,24.38V28"></path><line class="cls-1" x1="25.5" y1="36" x2="54.5" y2="36"></line><line class="cls-1" x1="40" y1="37" x2="40" y2="63.38"></line><line class="cls-4" x1="32" y1="18" x2="28" y2="13"></line><line class="cls-4" x1="48" y1="18" x2="52" y2="13"></line><path class="cls-4" d="M19,22v5.88A2,2,0,0,0,20,29.59L25.5,33"></path><path class="cls-4" d="M61,22v5.88a2,2,0,0,1-1,1.71L54.5,33"></path><line class="cls-1" x1="17" y1="44" x2="25" y2="44"></line><circle class="cls-5" cx="32.5" cy="49.5" r="2.5"></circle><circle class="cls-5" cx="47.5" cy="49.5" r="2.5"></circle><rect class="cls-6" width="80" height="80"></rect></g></svg> 