<svg xmlns="http://www.w3.org/2000/svg" xmlns:xlink="http://www.w3.org/1999/xlink" width="1360.5" height="759" viewBox="0 0 1360.5 759"><defs><linearGradient id="a" x1="0.5" x2="0.5" y2="1" gradientUnits="objectBoundingBox"><stop offset="0" stop-color="#fff"/><stop offset="1" stop-color="#f5f5f5"/></linearGradient></defs><g transform="translate(-3878 -2153)"><path d="M0,0H1360a0,0,0,0,1,0,0V665a6,6,0,0,1-6,6H6a6,6,0,0,1-6-6V0A0,0,0,0,1,0,0Z" transform="translate(3878 2241)" fill="#fff"/><path d="M6,0H1354a6,6,0,0,1,6,6V88a0,0,0,0,1,0,0H0a0,0,0,0,1,0,0V6A6,6,0,0,1,6,0Z" transform="translate(3878 2153)" fill="url(#a)"/><path d="M10.5,5.712c-5.728,0-8.512,3.392-8.512,7.328,0,4.64,3.584,5.888,7.9,6.976,3.2.8,4.928,1.472,4.928,3.3,0,1.952-1.568,2.752-3.776,2.752-2.592,0-4.48-1.472-4.576-3.648l-5.024.256c.064,4.96,4.064,7.68,9.6,7.68,4.8,0,8.8-2.24,8.8-7.328,0-4.256-3.232-5.792-8.128-7.04-3.3-.768-4.672-1.28-4.672-3.1,0-1.7,1.28-2.88,3.552-2.88s3.68,1.312,3.712,3.328l5.056-.256C19.232,8.464,15.68,5.712,10.5,5.712ZM37.44,30V13.456H32.768V22.8c0,1.856-1.024,3.2-2.816,3.2-1.824,0-2.656-1.12-2.656-3.136V13.456H22.624v10.4c0,4.032,2.3,6.5,6.112,6.5a4.73,4.73,0,0,0,4.288-2.016V30ZM48.9,13.136c-4.9,0-8.48,3.168-8.48,8.608,0,5.408,3.616,8.608,8.48,8.608,4.064,0,7.2-2.4,7.84-6.3l-4.544-.416a3.07,3.07,0,0,1-3.3,2.688c-2.176,0-3.744-1.664-3.744-4.576,0-2.944,1.568-4.608,3.744-4.608A3.09,3.09,0,0,1,52.16,19.92l4.576-.384C56.128,15.536,52.928,13.136,48.9,13.136Zm15.3-8H59.52V30h4.672V20.816a3.03,3.03,0,0,1,3.072-3.328c1.792,0,2.912,1.184,2.912,3.3V30h4.672V19.888c0-4.288-2.656-6.752-6.464-6.752a5.114,5.114,0,0,0-4.192,1.728Zm16.64.1a2.814,2.814,0,0,0-2.784,2.816,2.8,2.8,0,0,0,5.6,0A2.8,2.8,0,0,0,80.832,5.232ZM83.168,30V13.456H78.5V30ZM95.936,13.136a5,5,0,0,0-4.448,2.016v-1.7H87.072V30h4.672V20.816a3.03,3.03,0,0,1,3.072-3.328c1.792,0,2.912,1.184,2.912,3.3V30H102.4V19.888C102.4,15.6,99.744,13.136,95.936,13.136Zm15.9,4.352h3.9V13.456h-3.872l.032-5.472h-4.672l-.032,5.472h-3.04v4.032h3.008l-.032,7.264c-.032,3.84,2.432,5.568,6.016,5.568a15.559,15.559,0,0,0,2.592-.192v-4.16a6.908,6.908,0,0,1-1.44.16,2.282,2.282,0,0,1-2.5-2.5Zm21.888,5.728V21.36c0-5.152-3.136-8.224-7.9-8.224-4.928,0-8.416,3.264-8.416,8.608,0,5.312,3.488,8.608,8.544,8.608,3.872,0,7.04-2.24,7.616-5.376l-4.7-.224c-.352,1.152-1.408,1.824-3.04,1.824a3.234,3.234,0,0,1-3.456-3.36Zm-7.936-6.432c2.112,0,3.136,1.312,3.232,3.328h-6.656A3.232,3.232,0,0,1,125.792,16.784Zm19.776-3.648a5,5,0,0,0-4.448,2.016v-1.7H136.7V30h4.672V20.816a3.03,3.03,0,0,1,3.072-3.328c1.792,0,2.912,1.184,2.912,3.3V30h4.672V19.888C152.032,15.6,149.376,13.136,145.568,13.136Zm15.9,4.352h3.9V13.456H161.5l.032-5.472h-4.672l-.032,5.472h-3.04v4.032H156.8l-.032,7.264c-.032,3.84,2.432,5.568,6.016,5.568a15.559,15.559,0,0,0,2.592-.192v-4.16a6.908,6.908,0,0,1-1.44.16,2.282,2.282,0,0,1-2.5-2.5Zm8.8-12.256a2.814,2.814,0,0,0-2.784,2.816,2.8,2.8,0,0,0,5.6,0A2.8,2.8,0,0,0,170.272,5.232ZM172.608,30V13.456h-4.672V30Zm11.808-16.864c-5.056,0-8.8,3.392-8.8,8.608,0,5.184,3.744,8.608,8.8,8.608s8.8-3.424,8.8-8.608C193.216,16.528,189.472,13.136,184.416,13.136Zm0,4c2.4,0,4.064,1.7,4.064,4.608,0,2.88-1.664,4.576-4.064,4.576s-4.064-1.7-4.064-4.576C180.352,18.832,182.016,17.136,184.416,17.136Zm20.64-4a5,5,0,0,0-4.448,2.016v-1.7h-4.416V30h4.672V20.816a3.03,3.03,0,0,1,3.072-3.328c1.792,0,2.912,1.184,2.912,3.3V30h4.672V19.888C211.52,15.6,208.864,13.136,205.056,13.136Zm11.648,0a2.816,2.816,0,1,0,2.848,2.848A2.807,2.807,0,0,0,216.7,13.136Zm0,11.552a2.832,2.832,0,1,0,2.848,2.848A2.807,2.807,0,0,0,216.7,24.688ZM251.776,30l-10.3-23.936h-4.16L227.04,30h5.408l1.984-4.608h9.952L246.336,30Zm-15.584-8.64,3.232-7.648,3.232,7.648Zm22.08-16.224H253.6V30h4.416V28.3a6.121,6.121,0,0,0,4.9,2.048c4.7,0,8-3.424,8-8.608,0-5.216-3.3-8.608-8-8.608a6.165,6.165,0,0,0-4.64,1.76Zm3.9,12c2.336,0,4,1.664,4,4.608s-1.664,4.576-4,4.576c-2.3,0-3.9-1.536-3.9-4.224V21.36C258.272,18.7,259.872,17.136,262.176,17.136ZM291.36,30l6.368-16.544h-5.12l-3.232,9.472-3.424-9.472h-3.264L279.3,22.928l-3.232-9.472h-5.12L277.28,30h3.712l3.328-8.768L287.648,30Zm22.688-6.784V21.36c0-5.152-3.136-8.224-7.9-8.224-4.928,0-8.416,3.264-8.416,8.608,0,5.312,3.488,8.608,8.544,8.608,3.872,0,7.04-2.24,7.616-5.376l-4.7-.224c-.352,1.152-1.408,1.824-3.04,1.824a3.234,3.234,0,0,1-3.456-3.36Zm-7.936-6.432c2.112,0,3.136,1.312,3.232,3.328h-6.656A3.232,3.232,0,0,1,306.112,16.784ZM319.36,5.232a2.814,2.814,0,0,0-2.784,2.816,2.8,2.8,0,0,0,5.6,0A2.8,2.8,0,0,0,319.36,5.232ZM321.7,30V13.456h-4.672V30Zm11.488-16.864c-4.9,0-8.48,3.168-8.48,8.608,0,5.408,3.616,8.608,8.48,8.608,4.064,0,7.2-2.4,7.84-6.3l-4.544-.416a3.07,3.07,0,0,1-3.3,2.688c-2.176,0-3.744-1.664-3.744-4.576,0-2.944,1.568-4.608,3.744-4.608a3.09,3.09,0,0,1,3.264,2.784l4.576-.384C340.416,15.536,337.216,13.136,333.184,13.136Zm15.3-8h-4.672V30h4.672V20.816a3.03,3.03,0,0,1,3.072-3.328c1.792,0,2.912,1.184,2.912,3.3V30h4.672V19.888c0-4.288-2.656-6.752-6.464-6.752a5.114,5.114,0,0,0-4.192,1.728ZM377.44,30V13.456h-4.672V22.8c0,1.856-1.024,3.2-2.816,3.2-1.824,0-2.656-1.12-2.656-3.136V13.456h-4.672v10.4c0,4.032,2.3,6.5,6.112,6.5a4.73,4.73,0,0,0,4.288-2.016V30Zm12.736-16.864a5,5,0,0,0-4.448,2.016v-1.7h-4.416V30h4.672V20.816a3.03,3.03,0,0,1,3.072-3.328c1.792,0,2.912,1.184,2.912,3.3V30h4.672V19.888C396.64,15.6,393.984,13.136,390.176,13.136Zm17.248,0c-4.672,0-7.968,3.424-7.968,8.608s3.3,8.608,7.968,8.608a6.37,6.37,0,0,0,4.672-1.76V30.96c0,2.368-1.568,3.552-3.872,3.552-2.112,0-3.488-.96-3.712-2.56l-4.64.16c.608,3.776,3.328,6.368,8.512,6.368,5.088,0,8.352-3.1,8.352-7.872V13.456h-4.384v1.728A6.047,6.047,0,0,0,407.424,13.136Zm.768,4c2.3,0,3.9,1.568,3.9,4.224v.768c0,2.656-1.6,4.224-3.9,4.224-2.336,0-4-1.664-4-4.608S405.856,17.136,408.192,17.136ZM449.536,30l-10.3-23.936h-4.16L424.8,30h5.408l1.984-4.608h9.952L444.1,30Zm-15.584-8.64,3.232-7.648,3.232,7.648Zm26.272-8.224a5,5,0,0,0-4.448,2.016v-1.7H451.36V30h4.672V20.816a3.03,3.03,0,0,1,3.072-3.328c1.792,0,2.912,1.184,2.912,3.3V30h4.672V19.888C466.688,15.6,464.032,13.136,460.224,13.136Zm15.9,4.352h3.9V13.456H476.16l.032-5.472H471.52l-.032,5.472h-3.04v4.032h3.008l-.032,7.264c-.032,3.84,2.432,5.568,6.016,5.568a15.559,15.559,0,0,0,2.592-.192v-4.16a6.908,6.908,0,0,1-1.44.16,2.282,2.282,0,0,1-2.5-2.5Zm21.888,5.728V21.36c0-5.152-3.136-8.224-7.9-8.224-4.928,0-8.416,3.264-8.416,8.608,0,5.312,3.488,8.608,8.544,8.608,3.872,0,7.04-2.24,7.616-5.376l-4.7-.224c-.352,1.152-1.408,1.824-3.04,1.824a3.234,3.234,0,0,1-3.456-3.36Zm-7.936-6.432c2.112,0,3.136,1.312,3.232,3.328h-6.656A3.232,3.232,0,0,1,490.08,16.784ZM503.328,5.232a2.814,2.814,0,0,0-2.784,2.816,2.8,2.8,0,0,0,5.6,0A2.8,2.8,0,0,0,503.328,5.232ZM505.664,30V13.456h-4.672V30Zm8.576,0V5.136h-4.672V30Zm36.832,0V6.064H546.72l-8.768,16.448L529.12,6.064h-4.384V30h4.96V17.072l6.624,12.672h3.264l6.592-12.672V30Zm11.9-16.864c-5.056,0-8.8,3.392-8.8,8.608,0,5.184,3.744,8.608,8.8,8.608s8.8-3.424,8.8-8.608C571.776,16.528,568.032,13.136,562.976,13.136Zm0,4c2.4,0,4.064,1.7,4.064,4.608,0,2.88-1.664,4.576-4.064,4.576s-4.064-1.7-4.064-4.576C558.912,18.832,560.576,17.136,562.976,17.136Zm16.448-12h-4.672V30h4.416V28.3a6.121,6.121,0,0,0,4.9,2.048c4.7,0,8-3.424,8-8.608,0-5.216-3.3-8.608-8-8.608a6.165,6.165,0,0,0-4.64,1.76Zm3.9,12c2.336,0,4,1.664,4,4.608s-1.664,4.576-4,4.576c-2.3,0-3.9-1.536-3.9-4.224V21.36C579.424,18.7,581.024,17.136,583.328,17.136Zm14.048-11.9a2.814,2.814,0,0,0-2.784,2.816,2.8,2.8,0,0,0,5.6,0A2.8,2.8,0,0,0,597.376,5.232ZM599.712,30V13.456H595.04V30Zm8.576,0V5.136h-4.672V30Zm19.328-6.784V21.36c0-5.152-3.136-8.224-7.9-8.224-4.928,0-8.416,3.264-8.416,8.608,0,5.312,3.488,8.608,8.544,8.608,3.872,0,7.04-2.24,7.616-5.376l-4.7-.224c-.352,1.152-1.408,1.824-3.04,1.824a3.234,3.234,0,0,1-3.456-3.36Zm-7.936-6.432c2.112,0,3.136,1.312,3.232,3.328h-6.656A3.232,3.232,0,0,1,619.68,16.784ZM645.824,30l7.136-16.544h-5.152l-3.84,9.728L640.1,13.456h-5.152L642.08,30Zm15.968-16.864c-5.056,0-8.8,3.392-8.8,8.608,0,5.184,3.744,8.608,8.8,8.608s8.8-3.424,8.8-8.608C670.592,16.528,666.848,13.136,661.792,13.136Zm0,4c2.4,0,4.064,1.7,4.064,4.608,0,2.88-1.664,4.576-4.064,4.576s-4.064-1.7-4.064-4.576C657.728,18.832,659.392,17.136,661.792,17.136Zm20.64-4a5,5,0,0,0-4.448,2.016v-1.7h-4.416V30h4.672V20.816a3.03,3.03,0,0,1,3.072-3.328c1.792,0,2.912,1.184,2.912,3.3V30H688.9V19.888C688.9,15.6,686.24,13.136,682.432,13.136ZM699.2,6.064V30h9.824c6.816,0,11.9-4.448,11.9-11.968S715.872,6.064,709.056,6.064Zm4.928,4.224h4.96c4.192,0,6.944,2.592,6.944,7.744s-2.784,7.744-6.944,7.744h-4.96ZM738.72,30V13.456h-4.672V22.8c0,1.856-1.024,3.2-2.816,3.2-1.824,0-2.656-1.12-2.656-3.136V13.456H723.9v10.4c0,4.032,2.3,6.5,6.112,6.5a4.73,4.73,0,0,0,4.288-2.016V30Zm12.928-16.7c-2.528,0-3.84.96-4.544,2.048V13.456h-4.512V30h4.672V21.616c0-2.272,1.7-3.808,4.384-3.808Zm9.824-.16c-4.9,0-8.48,3.168-8.48,8.608,0,5.408,3.616,8.608,8.48,8.608,4.064,0,7.2-2.4,7.84-6.3l-4.544-.416a3.07,3.07,0,0,1-3.3,2.688c-2.176,0-3.744-1.664-3.744-4.576,0-2.944,1.568-4.608,3.744-4.608a3.09,3.09,0,0,1,3.264,2.784l4.576-.384C768.7,15.536,765.5,13.136,761.472,13.136Zm15.3-8H772.1V30h4.672V20.816a3.03,3.03,0,0,1,3.072-3.328c1.792,0,2.912,1.184,2.912,3.3V30h4.672V19.888c0-4.288-2.656-6.752-6.464-6.752a5.114,5.114,0,0,0-4.192,1.728Zm19.968,8c-4.16,0-6.624,2.048-6.624,5.216,0,3.392,2.336,4.128,5.856,5.024,2.4.576,3.008.9,3.008,1.888,0,.96-.8,1.5-2.08,1.5-1.6,0-2.336-.832-2.4-2.048l-4.672.256c.352,3.456,2.816,5.376,7.04,5.376,4.32,0,6.784-2.144,6.784-5.5,0-3.008-2.336-4.032-5.632-4.9-1.984-.512-3.232-.672-3.232-1.824,0-.9.64-1.408,1.888-1.408a1.91,1.91,0,0,1,2.112,2.016l4.64-.256C803.136,15.408,800.928,13.136,796.736,13.136Zm17.376,0c-4.9,0-8.48,3.168-8.48,8.608,0,5.408,3.616,8.608,8.48,8.608,4.064,0,7.2-2.4,7.84-6.3l-4.544-.416a3.07,3.07,0,0,1-3.3,2.688c-2.176,0-3.744-1.664-3.744-4.576,0-2.944,1.568-4.608,3.744-4.608a3.09,3.09,0,0,1,3.264,2.784l4.576-.384C821.344,15.536,818.144,13.136,814.112,13.136Zm15.3-8h-4.672V30h4.672V20.816a3.03,3.03,0,0,1,3.072-3.328c1.792,0,2.912,1.184,2.912,3.3V30h4.672V19.888c0-4.288-2.656-6.752-6.464-6.752a5.114,5.114,0,0,0-4.192,1.728Zm23.168,8a5,5,0,0,0-4.448,2.016v-1.7h-4.416V30h4.672V20.816a3.03,3.03,0,0,1,3.072-3.328c1.792,0,2.912,1.184,2.912,3.3V30h4.672V19.888C859.04,15.6,856.384,13.136,852.576,13.136Zm12.512-7.9A2.814,2.814,0,0,0,862.3,8.048a2.8,2.8,0,0,0,5.6,0A2.8,2.8,0,0,0,865.088,5.232ZM867.424,30V13.456h-4.672V30Zm9.632-12.512h3.9V13.456h-3.872l.032-5.472h-4.672l-.032,5.472h-3.04v4.032h3.008l-.032,7.264c-.032,3.84,2.432,5.568,6.016,5.568a15.558,15.558,0,0,0,2.592-.192v-4.16a6.908,6.908,0,0,1-1.44.16,2.282,2.282,0,0,1-2.5-2.5Zm12.384,0h3.9V13.456h-3.872l.032-5.472h-4.672l-.032,5.472h-3.04v4.032h3.008l-.032,7.264c-.032,3.84,2.432,5.568,6.016,5.568a15.558,15.558,0,0,0,2.592-.192v-4.16a6.908,6.908,0,0,1-1.44.16,2.282,2.282,0,0,1-2.5-2.5Z" transform="translate(3991 2180)" fill="#00285a"/><line x2="1360" transform="translate(3878.5 2240.5)" fill="none" stroke="#e3e3e3" stroke-width="2"/></g><g transform="translate(111)"><g transform="translate(1017.8 1041.823)"><path d="M87.056,45.443c0,3.458-3.332,6.665-9.683,6.665A18.539,18.539,0,0,1,69.2,50.221l1.509-2.641a14.128,14.128,0,0,0,6.79,1.7c3.018,0,4.9-1.257,4.9-3.269,0-1.509-1.132-2.515-3.71-3.018l-2.641-.629a7.92,7.92,0,0,1-4.778-2.515,4.5,4.5,0,0,1-1.006-3.018c0-3.647,3.458-6.162,8.425-6.162a15.572,15.572,0,0,1,7.859,2.012l-1.886,2.452a12.094,12.094,0,0,0-5.847-1.509c-2.452,0-4.024,1.132-4.024,2.829,0,1.32.88,1.949,3.269,2.578l2.955.692C84.541,40.413,87.056,42.3,87.056,45.443Zm26.533-5.91-2.955-.692c-2.452-.629-3.269-1.257-3.269-2.578,0-1.7,1.635-2.829,4.024-2.829a11.918,11.918,0,0,1,5.847,1.509l1.886-2.452a15.463,15.463,0,0,0-7.859-1.886c-4.967,0-8.425,2.515-8.425,6.162a4.29,4.29,0,0,0,1.006,3.018,7.909,7.909,0,0,0,4.841,2.515l2.641.629c2.578.566,3.71,1.509,3.71,3.018,0,2.075-1.823,3.269-4.9,3.269a14.822,14.822,0,0,1-6.728-1.7l-1.509,2.641a18.342,18.342,0,0,0,8.174,1.886c6.35,0,9.683-3.207,9.683-6.665C119.688,42.3,117.173,40.413,113.59,39.533ZM92.527,51.668h4.213V30.919H92.527Zm29.3-17.919h6.287V51.668h4.15V33.811h6.225l.566-2.892H121.889v2.829Zm60.8,6.539,6.287-9.431h-4.9l-3.9,6.476-3.961-6.413h-5.03l6.665,9.62L170.177,51.73h5.093l4.967-8.237,5.156,8.237h4.9ZM154.835,46.7l3.647,4.967h-4.9l-2.138-3.207a23.639,23.639,0,0,0-4.213-5.156,2.227,2.227,0,0,0-1.635-.629V51.73h-4.087V30.919h7.608c5.533,0,8.111,2.7,8.111,5.973a5.742,5.742,0,0,1-5.722,5.722h-.44A16.7,16.7,0,0,1,154.835,46.7Zm-3.018-7.293a3.256,3.256,0,0,0,1.132-2.515c0-2.138-1.383-3.207-5.03-3.207h-2.326v6.6h2.138a6.4,6.4,0,0,0,4.087-.88ZM162.946,51.73h4.213V30.919h-4.275Zm75.324,15.4L226.009,54.874a17.341,17.341,0,1,1,3.018-3.081l12.323,12.323ZM215.384,55.063a13.77,13.77,0,1,0-13.77-13.77,13.766,13.766,0,0,0,13.77,13.77Z" transform="translate(-46 -378)" fill="#ddd"/></g></g><path d="M39.453,34.586,31.664,26.8a1.874,1.874,0,0,0-1.328-.547H29.063a16.243,16.243,0,1,0-2.812,2.813v1.273a1.874,1.874,0,0,0,.547,1.328l7.789,7.789a1.867,1.867,0,0,0,2.648,0l2.211-2.211A1.884,1.884,0,0,0,39.453,34.586ZM16.25,26.25a10,10,0,1,1,10-10A9.994,9.994,0,0,1,16.25,26.25Z" transform="translate(37 26)" fill="#1269d3"/><rect width="38" height="148" transform="translate(7 122)" fill="#fff"/><line x2="1360" transform="translate(0.5 600)" fill="none" stroke="#e3e3e3" stroke-width="2"/><g transform="translate(2)"><path d="M18.591,19.576H11.919V17.512h6.672ZM33.644,8.516,25.4,27H22.747L30.964,9.172H20.19V7.094H33.644Zm3.049,22.449-1.436-.984a6.6,6.6,0,0,0,1.34-3.691V24.006h2.475v1.982a6.227,6.227,0,0,1-.677,2.762A6.466,6.466,0,0,1,36.692,30.965Zm6.48-13.945,1.012-9.926h10.2V9.432H46.331l-.6,5.428A6.424,6.424,0,0,1,49.052,14a5.492,5.492,0,0,1,4.32,1.8,7.046,7.046,0,0,1,1.6,4.86A6.8,6.8,0,0,1,53.311,25.5a6.054,6.054,0,0,1-4.642,1.771,6.292,6.292,0,0,1-4.307-1.463,5.839,5.839,0,0,1-1.9-4.047h2.393a4.017,4.017,0,0,0,1.217,2.577,3.783,3.783,0,0,0,2.6.868,3.413,3.413,0,0,0,2.769-1.2,5.03,5.03,0,0,0,1-3.322,4.616,4.616,0,0,0-1.087-3.206,3.7,3.7,0,0,0-2.892-1.21,4.17,4.17,0,0,0-2.6.725l-.67.547Zm14.342-6.1a4.039,4.039,0,0,1,1.142-2.953,4.289,4.289,0,0,1,5.879.007A4.179,4.179,0,0,1,65.663,11v.971a3.987,3.987,0,0,1-1.142,2.946,3.936,3.936,0,0,1-2.905,1.142,4.022,4.022,0,0,1-2.939-1.142,4.071,4.071,0,0,1-1.162-3.042ZM59.4,11.969A2.587,2.587,0,0,0,60,13.73a2.03,2.03,0,0,0,1.613.692,1.99,1.99,0,0,0,1.565-.671,2.672,2.672,0,0,0,.595-1.836v-1a2.652,2.652,0,0,0-.588-1.768,2.18,2.18,0,0,0-3.2,0,2.735,2.735,0,0,0-.588,1.823Zm7.807,10.15a4.016,4.016,0,0,1,1.142-2.946,4.318,4.318,0,0,1,5.872-.007,4.121,4.121,0,0,1,1.148,3.049v.971a4.016,4.016,0,0,1-1.142,2.946,3.928,3.928,0,0,1-2.919,1.155,4.022,4.022,0,0,1-2.939-1.142A4.071,4.071,0,0,1,67.208,23.1Zm1.887,1.061a2.607,2.607,0,0,0,.6,1.774,2.03,2.03,0,0,0,1.613.692,1.976,1.976,0,0,0,1.572-.678,2.718,2.718,0,0,0,.588-1.843V22.111a2.6,2.6,0,0,0-.595-1.768,2.186,2.186,0,0,0-3.172-.007,2.638,2.638,0,0,0-.608,1.829ZM62.19,25.5l-1.436-.9L70.476,9.035l1.436.9Z" transform="translate(238 620)" fill="#888"/></g><g transform="translate(354)"><line y2="440" transform="translate(-74 160)" fill="none" stroke="#e3e3e3" stroke-width="2"/><path d="M18.591,19.576H11.919V17.512h6.672Zm3.363-2.557,1.012-9.926h10.2V9.432H25.112l-.6,5.428A6.424,6.424,0,0,1,27.833,14a5.492,5.492,0,0,1,4.32,1.8,7.046,7.046,0,0,1,1.6,4.86A6.8,6.8,0,0,1,32.092,25.5a6.054,6.054,0,0,1-4.642,1.771,6.292,6.292,0,0,1-4.307-1.463,5.839,5.839,0,0,1-1.9-4.047h2.393a4.017,4.017,0,0,0,1.217,2.577,3.783,3.783,0,0,0,2.6.868,3.413,3.413,0,0,0,2.769-1.2,5.03,5.03,0,0,0,1-3.322,4.616,4.616,0,0,0-1.087-3.206,3.7,3.7,0,0,0-2.892-1.21,4.17,4.17,0,0,0-2.6.725l-.67.547ZM36.692,30.965l-1.436-.984a6.6,6.6,0,0,0,1.34-3.691V24.006h2.475v1.982a6.227,6.227,0,0,1-.677,2.762A6.466,6.466,0,0,1,36.692,30.965Zm17.8-12.455q0,4.443-1.518,6.6a5.4,5.4,0,0,1-4.744,2.16,5.437,5.437,0,0,1-4.717-2.112q-1.531-2.112-1.586-6.31V15.475q0-4.389,1.518-6.521A5.439,5.439,0,0,1,48.2,6.82a5.488,5.488,0,0,1,4.73,2.058q1.518,2.058,1.559,6.351Zm-2.529-3.459a9.268,9.268,0,0,0-.9-4.683A3.106,3.106,0,0,0,48.2,8.9a3.065,3.065,0,0,0-2.83,1.463,9.049,9.049,0,0,0-.916,4.5v4.047a9.417,9.417,0,0,0,.937,4.765,3.1,3.1,0,0,0,2.837,1.538,3.057,3.057,0,0,0,2.782-1.449,9.076,9.076,0,0,0,.95-4.566Zm5.551-4.129a4.039,4.039,0,0,1,1.142-2.953,4.289,4.289,0,0,1,5.879.007A4.179,4.179,0,0,1,65.663,11v.971a3.987,3.987,0,0,1-1.142,2.946,3.936,3.936,0,0,1-2.905,1.142,4.022,4.022,0,0,1-2.939-1.142,4.071,4.071,0,0,1-1.162-3.042ZM59.4,11.969A2.587,2.587,0,0,0,60,13.73a2.03,2.03,0,0,0,1.613.692,1.99,1.99,0,0,0,1.565-.671,2.672,2.672,0,0,0,.595-1.836v-1a2.652,2.652,0,0,0-.588-1.768,2.18,2.18,0,0,0-3.2,0,2.735,2.735,0,0,0-.588,1.823Zm7.807,10.15a4.016,4.016,0,0,1,1.142-2.946,4.318,4.318,0,0,1,5.872-.007,4.121,4.121,0,0,1,1.148,3.049v.971a4.016,4.016,0,0,1-1.142,2.946,3.928,3.928,0,0,1-2.919,1.155,4.022,4.022,0,0,1-2.939-1.142A4.071,4.071,0,0,1,67.208,23.1Zm1.887,1.061a2.607,2.607,0,0,0,.6,1.774,2.03,2.03,0,0,0,1.613.692,1.976,1.976,0,0,0,1.572-.678,2.718,2.718,0,0,0,.588-1.843V22.111a2.6,2.6,0,0,0-.595-1.768,2.186,2.186,0,0,0-3.172-.007,2.638,2.638,0,0,0-.608,1.829ZM62.19,25.5l-1.436-.9L70.476,9.035l1.436.9Z" transform="translate(46 620)" fill="#888"/></g><g transform="translate(706)"><line y2="440" transform="translate(-266 160)" fill="none" stroke="#e3e3e3" stroke-width="2"/><path d="M10.591,19.576H3.919V17.512h6.672ZM25.835,27H12.792V25.182l6.891-7.656A16.37,16.37,0,0,0,21.795,14.7a4.712,4.712,0,0,0,.581-2.249A3.572,3.572,0,0,0,21.433,9.9a3.3,3.3,0,0,0-2.516-1,3.906,3.906,0,0,0-2.933,1.073,4.1,4.1,0,0,0-1.046,2.987H12.409A5.871,5.871,0,0,1,14.18,8.516a6.563,6.563,0,0,1,4.737-1.7,6.307,6.307,0,0,1,4.389,1.456,4.967,4.967,0,0,1,1.613,3.876q0,2.939-3.746,7l-5.332,5.783h9.994Zm2.857,3.965-1.436-.984a6.6,6.6,0,0,0,1.34-3.691V24.006h2.475v1.982a6.227,6.227,0,0,1-.677,2.762A6.466,6.466,0,0,1,28.692,30.965Zm6.48-13.945,1.012-9.926h10.2V9.432H38.331l-.6,5.428A6.424,6.424,0,0,1,41.052,14a5.492,5.492,0,0,1,4.32,1.8,7.046,7.046,0,0,1,1.6,4.86A6.8,6.8,0,0,1,45.311,25.5a6.054,6.054,0,0,1-4.642,1.771,6.292,6.292,0,0,1-4.307-1.463,5.839,5.839,0,0,1-1.9-4.047h2.393a4.017,4.017,0,0,0,1.217,2.577,3.783,3.783,0,0,0,2.6.868,3.413,3.413,0,0,0,2.769-1.2,5.03,5.03,0,0,0,1-3.322,4.616,4.616,0,0,0-1.087-3.206,3.7,3.7,0,0,0-2.892-1.21,4.17,4.17,0,0,0-2.6.725l-.67.547Zm14.342-6.1a4.039,4.039,0,0,1,1.142-2.953,4.289,4.289,0,0,1,5.879.007A4.179,4.179,0,0,1,57.663,11v.971a3.987,3.987,0,0,1-1.142,2.946,3.936,3.936,0,0,1-2.905,1.142,4.022,4.022,0,0,1-2.939-1.142,4.071,4.071,0,0,1-1.162-3.042ZM51.4,11.969A2.587,2.587,0,0,0,52,13.73a2.03,2.03,0,0,0,1.613.692,1.99,1.99,0,0,0,1.565-.671,2.672,2.672,0,0,0,.595-1.836v-1a2.652,2.652,0,0,0-.588-1.768,2.18,2.18,0,0,0-3.2,0,2.735,2.735,0,0,0-.588,1.823Zm7.807,10.15a4.016,4.016,0,0,1,1.142-2.946,4.318,4.318,0,0,1,5.872-.007,4.121,4.121,0,0,1,1.148,3.049v.971a4.016,4.016,0,0,1-1.142,2.946,3.928,3.928,0,0,1-2.919,1.155,4.022,4.022,0,0,1-2.939-1.142A4.071,4.071,0,0,1,59.208,23.1Zm1.887,1.061a2.607,2.607,0,0,0,.6,1.774,2.03,2.03,0,0,0,1.613.692,1.976,1.976,0,0,0,1.572-.678,2.718,2.718,0,0,0,.588-1.843V22.111a2.6,2.6,0,0,0-.595-1.768,2.186,2.186,0,0,0-3.172-.007,2.638,2.638,0,0,0-.608,1.829ZM54.19,25.5l-1.436-.9L62.476,9.035l1.436.9Z" transform="translate(-138 621.5)" fill="#888"/></g><g transform="translate(1058 -7.5)"><line y2="440" transform="translate(-298 167.5)" fill="none" stroke="#e3e3e3" stroke-width="2"/><line y2="440" transform="translate(22 167.5)" fill="none" stroke="#e3e3e3" stroke-width="2"/><line y2="440" transform="translate(182 167.5)" fill="none" stroke="#e3e3e3" stroke-width="2"/><line y2="440" transform="translate(-138 167.5)" fill="none" stroke="#e3e3e3" stroke-width="2"/><line y2="440" transform="translate(-458 167.5)" fill="none" stroke="#e3e3e3" stroke-width="2"/><path d="M14.092,17.02,15.1,7.094H25.3V9.432H17.25l-.6,5.428A6.424,6.424,0,0,1,19.971,14a5.492,5.492,0,0,1,4.32,1.8,7.046,7.046,0,0,1,1.6,4.86A6.8,6.8,0,0,1,24.229,25.5a6.054,6.054,0,0,1-4.642,1.771,6.292,6.292,0,0,1-4.307-1.463,5.839,5.839,0,0,1-1.9-4.047h2.393a4.017,4.017,0,0,0,1.217,2.577,3.783,3.783,0,0,0,2.6.868,3.413,3.413,0,0,0,2.769-1.2,5.03,5.03,0,0,0,1-3.322,4.616,4.616,0,0,0-1.087-3.206,3.7,3.7,0,0,0-2.892-1.21,4.17,4.17,0,0,0-2.6.725l-.67.547ZM28.83,30.965l-1.436-.984a6.6,6.6,0,0,0,1.34-3.691V24.006h2.475v1.982a6.227,6.227,0,0,1-.677,2.762A6.466,6.466,0,0,1,28.83,30.965Zm17.8-12.455q0,4.443-1.518,6.6a5.4,5.4,0,0,1-4.744,2.16,5.437,5.437,0,0,1-4.717-2.112q-1.531-2.112-1.586-6.31V15.475q0-4.389,1.518-6.521A5.439,5.439,0,0,1,40.342,6.82a5.488,5.488,0,0,1,4.73,2.058q1.518,2.058,1.559,6.351ZM44.1,15.051a9.268,9.268,0,0,0-.9-4.683A3.106,3.106,0,0,0,40.342,8.9a3.065,3.065,0,0,0-2.83,1.463,9.049,9.049,0,0,0-.916,4.5v4.047a9.417,9.417,0,0,0,.937,4.765,3.1,3.1,0,0,0,2.837,1.538,3.057,3.057,0,0,0,2.782-1.449,9.076,9.076,0,0,0,.95-4.566Zm5.551-4.129a4.039,4.039,0,0,1,1.142-2.953,4.289,4.289,0,0,1,5.879.007A4.179,4.179,0,0,1,57.8,11v.971a3.987,3.987,0,0,1-1.142,2.946,3.936,3.936,0,0,1-2.905,1.142,4.022,4.022,0,0,1-2.939-1.142,4.071,4.071,0,0,1-1.162-3.042Zm1.887,1.047a2.587,2.587,0,0,0,.6,1.761,2.03,2.03,0,0,0,1.613.692,1.99,1.99,0,0,0,1.565-.671,2.672,2.672,0,0,0,.595-1.836v-1a2.652,2.652,0,0,0-.588-1.768,2.18,2.18,0,0,0-3.2,0,2.735,2.735,0,0,0-.588,1.823Zm7.807,10.15a4.016,4.016,0,0,1,1.142-2.946,4.318,4.318,0,0,1,5.872-.007,4.121,4.121,0,0,1,1.148,3.049v.971a4.016,4.016,0,0,1-1.142,2.946,3.928,3.928,0,0,1-2.919,1.155,4.022,4.022,0,0,1-2.939-1.142A4.071,4.071,0,0,1,59.346,23.1Zm1.887,1.061a2.607,2.607,0,0,0,.6,1.774,2.03,2.03,0,0,0,1.613.692,1.976,1.976,0,0,0,1.572-.678,2.718,2.718,0,0,0,.588-1.843V22.111a2.6,2.6,0,0,0-.595-1.768,2.186,2.186,0,0,0-3.172-.007,2.638,2.638,0,0,0-.608,1.829Zm-6.9,2.316-1.436-.9L62.613,9.035l1.436.9Z" transform="translate(-18 628.5)" fill="#888"/><path d="M24.845,8.516,16.6,27H13.948L22.165,9.172H11.392V7.094H24.845ZM28.03,25.674a1.584,1.584,0,0,1,.39-1.094,1.485,1.485,0,0,1,1.169-.437,1.529,1.529,0,0,1,1.183.438,1.552,1.552,0,0,1,.4,1.094,1.468,1.468,0,0,1-.4,1.053,1.557,1.557,0,0,1-1.183.424,1.406,1.406,0,0,1-1.559-1.477Zm8.217-8.654,1.012-9.926h10.2V9.432H39.405l-.6,5.428A6.424,6.424,0,0,1,42.126,14a5.492,5.492,0,0,1,4.32,1.8,7.046,7.046,0,0,1,1.6,4.86A6.8,6.8,0,0,1,46.385,25.5a6.054,6.054,0,0,1-4.642,1.771,6.292,6.292,0,0,1-4.307-1.463,5.839,5.839,0,0,1-1.9-4.047h2.393a4.017,4.017,0,0,0,1.217,2.577,3.783,3.783,0,0,0,2.6.868,3.413,3.413,0,0,0,2.769-1.2,5.03,5.03,0,0,0,1-3.322,4.616,4.616,0,0,0-1.087-3.206,3.7,3.7,0,0,0-2.892-1.21,4.17,4.17,0,0,0-2.6.725l-.67.547Zm14.342-6.1A4.039,4.039,0,0,1,51.73,7.969a4.289,4.289,0,0,1,5.879.007A4.179,4.179,0,0,1,58.737,11v.971A3.987,3.987,0,0,1,57.6,14.921a3.936,3.936,0,0,1-2.905,1.142,4.022,4.022,0,0,1-2.939-1.142,4.071,4.071,0,0,1-1.162-3.042Zm1.887,1.047a2.587,2.587,0,0,0,.6,1.761,2.03,2.03,0,0,0,1.613.692,1.99,1.99,0,0,0,1.565-.671,2.672,2.672,0,0,0,.595-1.836v-1a2.652,2.652,0,0,0-.588-1.768,2.18,2.18,0,0,0-3.2,0,2.735,2.735,0,0,0-.588,1.823Zm7.807,10.15a4.016,4.016,0,0,1,1.142-2.946,4.318,4.318,0,0,1,5.872-.007,4.121,4.121,0,0,1,1.148,3.049v.971A4.016,4.016,0,0,1,67.3,26.132a3.928,3.928,0,0,1-2.919,1.155,4.022,4.022,0,0,1-2.939-1.142A4.071,4.071,0,0,1,60.282,23.1Zm1.887,1.061a2.607,2.607,0,0,0,.6,1.774,2.03,2.03,0,0,0,1.613.692,1.976,1.976,0,0,0,1.572-.678,2.718,2.718,0,0,0,.588-1.843V22.111a2.6,2.6,0,0,0-.595-1.768,2.186,2.186,0,0,0-3.172-.007,2.638,2.638,0,0,0-.608,1.829Zm-6.9,2.316-1.436-.9L63.55,9.035l1.436.9Z" transform="translate(142 628.5)" fill="#888"/><path d="M21.973,27H8.93V25.182l6.891-7.656A16.37,16.37,0,0,0,17.933,14.7a4.712,4.712,0,0,0,.581-2.249A3.572,3.572,0,0,0,17.57,9.9a3.3,3.3,0,0,0-2.516-1,3.906,3.906,0,0,0-2.933,1.073,4.1,4.1,0,0,0-1.046,2.987H8.547a5.871,5.871,0,0,1,1.771-4.443,6.563,6.563,0,0,1,4.737-1.7,6.307,6.307,0,0,1,4.389,1.456,4.967,4.967,0,0,1,1.613,3.876q0,2.939-3.746,7l-5.332,5.783h9.994Zm2.857,3.965-1.436-.984a6.6,6.6,0,0,0,1.34-3.691V24.006h2.475v1.982a6.227,6.227,0,0,1-.677,2.762A6.466,6.466,0,0,1,24.83,30.965Zm6.48-13.945,1.012-9.926h10.2V9.432H34.469l-.6,5.428A6.424,6.424,0,0,1,37.189,14a5.492,5.492,0,0,1,4.32,1.8,7.046,7.046,0,0,1,1.6,4.86A6.8,6.8,0,0,1,41.448,25.5a6.054,6.054,0,0,1-4.642,1.771A6.292,6.292,0,0,1,32.5,25.811a5.839,5.839,0,0,1-1.9-4.047h2.393a4.017,4.017,0,0,0,1.217,2.577,3.783,3.783,0,0,0,2.6.868,3.413,3.413,0,0,0,2.769-1.2,5.03,5.03,0,0,0,1-3.322,4.616,4.616,0,0,0-1.087-3.206,3.7,3.7,0,0,0-2.892-1.21,4.17,4.17,0,0,0-2.6.725l-.67.547Zm14.342-6.1a4.039,4.039,0,0,1,1.142-2.953,4.289,4.289,0,0,1,5.879.007A4.179,4.179,0,0,1,53.8,11v.971a3.987,3.987,0,0,1-1.142,2.946,3.936,3.936,0,0,1-2.905,1.142,4.022,4.022,0,0,1-2.939-1.142,4.071,4.071,0,0,1-1.162-3.042Zm1.887,1.047a2.587,2.587,0,0,0,.6,1.761,2.03,2.03,0,0,0,1.613.692,1.99,1.99,0,0,0,1.565-.671,2.672,2.672,0,0,0,.595-1.836v-1a2.652,2.652,0,0,0-.588-1.768,2.18,2.18,0,0,0-3.2,0,2.735,2.735,0,0,0-.588,1.823Zm7.807,10.15a4.016,4.016,0,0,1,1.142-2.946,4.318,4.318,0,0,1,5.872-.007,4.121,4.121,0,0,1,1.148,3.049v.971a4.016,4.016,0,0,1-1.142,2.946,3.928,3.928,0,0,1-2.919,1.155,4.022,4.022,0,0,1-2.939-1.142A4.071,4.071,0,0,1,55.346,23.1Zm1.887,1.061a2.607,2.607,0,0,0,.6,1.774,2.03,2.03,0,0,0,1.613.692,1.976,1.976,0,0,0,1.572-.678,2.718,2.718,0,0,0,.588-1.843V22.111a2.6,2.6,0,0,0-.595-1.768,2.186,2.186,0,0,0-3.172-.007,2.638,2.638,0,0,0-.608,1.829Zm-6.9,2.316-1.436-.9L58.613,9.035l1.436.9Z" transform="translate(-178 628.5)" fill="#888"/><path d="M17.412,18.51q0,4.443-1.518,6.6a5.4,5.4,0,0,1-4.744,2.16,5.437,5.437,0,0,1-4.717-2.112Q4.9,23.049,4.848,18.852V15.475q0-4.389,1.518-6.521A5.439,5.439,0,0,1,11.123,6.82a5.488,5.488,0,0,1,4.73,2.058q1.518,2.058,1.559,6.351Zm-2.529-3.459a9.268,9.268,0,0,0-.9-4.683A3.106,3.106,0,0,0,11.123,8.9a3.065,3.065,0,0,0-2.83,1.463,9.049,9.049,0,0,0-.916,4.5v4.047a9.417,9.417,0,0,0,.937,4.765,3.1,3.1,0,0,0,2.837,1.538,3.057,3.057,0,0,0,2.782-1.449,9.076,9.076,0,0,0,.95-4.566ZM20.83,30.965l-1.436-.984a6.6,6.6,0,0,0,1.34-3.691V24.006h2.475v1.982a6.227,6.227,0,0,1-.677,2.762A6.466,6.466,0,0,1,20.83,30.965Zm17.8-12.455q0,4.443-1.518,6.6a5.4,5.4,0,0,1-4.744,2.16,5.437,5.437,0,0,1-4.717-2.112q-1.531-2.112-1.586-6.31V15.475q0-4.389,1.518-6.521A5.439,5.439,0,0,1,32.342,6.82a5.488,5.488,0,0,1,4.73,2.058q1.518,2.058,1.559,6.351ZM36.1,15.051a9.268,9.268,0,0,0-.9-4.683A3.106,3.106,0,0,0,32.342,8.9a3.065,3.065,0,0,0-2.83,1.463,9.049,9.049,0,0,0-.916,4.5v4.047a9.417,9.417,0,0,0,.937,4.765,3.1,3.1,0,0,0,2.837,1.538,3.057,3.057,0,0,0,2.782-1.449,9.076,9.076,0,0,0,.95-4.566Zm5.551-4.129a4.039,4.039,0,0,1,1.142-2.953,4.289,4.289,0,0,1,5.879.007A4.179,4.179,0,0,1,49.8,11v.971a3.987,3.987,0,0,1-1.142,2.946,3.936,3.936,0,0,1-2.905,1.142,4.022,4.022,0,0,1-2.939-1.142,4.071,4.071,0,0,1-1.162-3.042Zm1.887,1.047a2.587,2.587,0,0,0,.6,1.761,2.03,2.03,0,0,0,1.613.692,1.99,1.99,0,0,0,1.565-.671,2.672,2.672,0,0,0,.595-1.836v-1a2.652,2.652,0,0,0-.588-1.768,2.18,2.18,0,0,0-3.2,0,2.735,2.735,0,0,0-.588,1.823Zm7.807,10.15a4.016,4.016,0,0,1,1.142-2.946,4.318,4.318,0,0,1,5.872-.007,4.121,4.121,0,0,1,1.148,3.049v.971a4.016,4.016,0,0,1-1.142,2.946,3.928,3.928,0,0,1-2.919,1.155,4.022,4.022,0,0,1-2.939-1.142A4.071,4.071,0,0,1,51.346,23.1Zm1.887,1.061a2.607,2.607,0,0,0,.6,1.774,2.03,2.03,0,0,0,1.613.692,1.976,1.976,0,0,0,1.572-.678,2.718,2.718,0,0,0,.588-1.843V22.111a2.6,2.6,0,0,0-.595-1.768,2.186,2.186,0,0,0-3.172-.007,2.638,2.638,0,0,0-.608,1.829Zm-6.9,2.316-1.436-.9L54.613,9.035l1.436.9Z" transform="translate(-330 628.5)" fill="#888"/></g><g transform="translate(-3878 -857)"><g transform="translate(0 -832)"><path d="M6,0H416a0,0,0,0,1,0,0V48a0,0,0,0,1,0,0H6a6,6,0,0,1-6-6V6A6,6,0,0,1,6,0Z" transform="translate(4222 2201)" fill="#c02"/><path d="M9.313,21.859h-8.2V18.8h8.2Zm14.7-14.719v3.141h-.469a7.537,7.537,0,0,0-5.094,1.75,7.323,7.323,0,0,0-2.266,4.828,6.165,6.165,0,0,1,4.672-1.922,5.823,5.823,0,0,1,4.758,2.125,8.369,8.369,0,0,1,1.742,5.484,7.824,7.824,0,0,1-2.039,5.617,7.039,7.039,0,0,1-5.352,2.148A6.875,6.875,0,0,1,14.445,27.8,9.9,9.9,0,0,1,12.328,21.2v-1.3q0-5.984,2.914-9.375t8.383-3.391ZM19.938,18a4,4,0,0,0-2.289.7,4.11,4.11,0,0,0-1.523,1.875v1.156a6.811,6.811,0,0,0,1.063,4.023,3.24,3.24,0,0,0,2.75,1.492,3.2,3.2,0,0,0,2.672-1.266,5.27,5.27,0,0,0,.984-3.328,5.346,5.346,0,0,0-1-3.359A3.188,3.188,0,0,0,19.938,18ZM31.172,35.125l-2.047-1.219a11.041,11.041,0,0,0,1.242-2.477,7.39,7.39,0,0,0,.352-2.148V26.328h3.422l-.016,2.734a7.621,7.621,0,0,1-.836,3.32A8.248,8.248,0,0,1,31.172,35.125ZM51.75,13.25a5.289,5.289,0,0,1-.859,2.977,5.961,5.961,0,0,1-2.344,2.055,6.492,6.492,0,0,1,2.742,2.266,5.715,5.715,0,0,1,.961,3.25,5.969,5.969,0,0,1-2.031,4.758,7.973,7.973,0,0,1-5.406,1.758,8,8,0,0,1-5.43-1.766,5.964,5.964,0,0,1-2.039-4.75,5.782,5.782,0,0,1,.969-3.281,6.223,6.223,0,0,1,2.719-2.234,5.927,5.927,0,0,1-2.32-2.055,5.324,5.324,0,0,1-.852-2.977,5.918,5.918,0,0,1,1.875-4.609,7.244,7.244,0,0,1,5.063-1.7,7.267,7.267,0,0,1,5.078,1.7A5.918,5.918,0,0,1,51.75,13.25Zm-3.3,10.359a3.75,3.75,0,0,0-1.008-2.727,3.542,3.542,0,0,0-2.664-1.039,3.5,3.5,0,0,0-2.648,1.031,3.778,3.778,0,0,0-.992,2.734,3.66,3.66,0,0,0,.977,2.672,4.161,4.161,0,0,0,5.375.031A3.671,3.671,0,0,0,48.453,23.609Zm-.484-10.219a3.53,3.53,0,0,0-.859-2.445A3.3,3.3,0,0,0,42.5,10.9a3.532,3.532,0,0,0-.844,2.492,3.518,3.518,0,0,0,.852,2.484,3.342,3.342,0,0,0,4.609,0A3.518,3.518,0,0,0,47.969,13.391Zm7.484-1.766a4.566,4.566,0,0,1,1.328-3.383,5.289,5.289,0,0,1,6.992,0,4.68,4.68,0,0,1,1.32,3.461v1.125a4.534,4.534,0,0,1-1.32,3.359A4.716,4.716,0,0,1,60.3,17.5a4.865,4.865,0,0,1-3.477-1.289,4.55,4.55,0,0,1-1.367-3.477Zm2.656,1.2a2.506,2.506,0,0,0,.6,1.747,2.035,2.035,0,0,0,1.586.666,1.993,1.993,0,0,0,1.563-.666,2.62,2.62,0,0,0,.594-1.809V11.616a2.535,2.535,0,0,0-.6-1.755,2.024,2.024,0,0,0-1.586-.674,1.966,1.966,0,0,0-1.57.681,2.655,2.655,0,0,0-.586,1.794Zm8.281,11.6a4.472,4.472,0,0,1,1.359-3.391,5.3,5.3,0,0,1,6.945,0,4.623,4.623,0,0,1,1.352,3.5v1.109a4.57,4.57,0,0,1-1.3,3.352,4.688,4.688,0,0,1-3.492,1.32,4.827,4.827,0,0,1-3.523-1.3,4.6,4.6,0,0,1-1.336-3.445Zm2.656,1.2a2.492,2.492,0,0,0,.617,1.742,2.045,2.045,0,0,0,1.586.68,1.983,1.983,0,0,0,1.57-.648,2.666,2.666,0,0,0,.57-1.82V24.406a2.469,2.469,0,0,0-.609-1.75,2.2,2.2,0,0,0-3.133,0,2.581,2.581,0,0,0-.6,1.813ZM61.078,28.3l-1.953-1.125L70.234,9.391l1.953,1.125Z" transform="translate(4230 2206)" fill="#fff"/><path d="M0,0H314a6,6,0,0,1,6,6V42a6,6,0,0,1-6,6H0a0,0,0,0,1,0,0V0A0,0,0,0,1,0,0Z" transform="translate(4638 1849)" fill="#c02"/><path d="M2.719,18.719,3.953,7.25H16.172v3.281H7.109l-.625,5.438a7.024,7.024,0,0,1,3.563-.906A6.338,6.338,0,0,1,15.1,17.141a8.235,8.235,0,0,1,1.8,5.594,7.58,7.58,0,0,1-2,5.523,7.3,7.3,0,0,1-5.484,2.055,7.645,7.645,0,0,1-5.18-1.773,6.411,6.411,0,0,1-2.227-4.68H5.688A4.01,4.01,0,0,0,6.875,26.4a3.612,3.612,0,0,0,2.531.883,3.264,3.264,0,0,0,2.727-1.25,5.4,5.4,0,0,0,.977-3.406,4.767,4.767,0,0,0-1.078-3.289,3.771,3.771,0,0,0-2.969-1.211,4.939,4.939,0,0,0-1.75.273,4.956,4.956,0,0,0-1.562,1.07ZM20.672,35.125l-2.047-1.219a11.041,11.041,0,0,0,1.242-2.477,7.39,7.39,0,0,0,.352-2.148V26.328h3.422l-.016,2.734a7.621,7.621,0,0,1-.836,3.32A8.248,8.248,0,0,1,20.672,35.125Zm21.078-14.7q0,4.906-1.836,7.4a6.484,6.484,0,0,1-5.586,2.492,6.57,6.57,0,0,1-5.555-2.43q-1.867-2.43-1.914-7.2V16.75q0-4.906,1.836-7.359a6.544,6.544,0,0,1,5.6-2.453,6.581,6.581,0,0,1,5.57,2.391q1.836,2.391,1.883,7.156Zm-3.8-4.25a9.626,9.626,0,0,0-.875-4.7A2.986,2.986,0,0,0,34.3,9.984,2.984,2.984,0,0,0,31.563,11.4a8.9,8.9,0,0,0-.922,4.414v5.156a9.875,9.875,0,0,0,.891,4.75,2.992,2.992,0,0,0,2.8,1.563,2.939,2.939,0,0,0,2.7-1.445,9.291,9.291,0,0,0,.922-4.523Zm7-4.547a4.566,4.566,0,0,1,1.328-3.383,5.289,5.289,0,0,1,6.992,0,4.68,4.68,0,0,1,1.32,3.461v1.125a4.534,4.534,0,0,1-1.32,3.359A4.716,4.716,0,0,1,49.8,17.5a4.865,4.865,0,0,1-3.477-1.289,4.55,4.55,0,0,1-1.367-3.477Zm2.656,1.2a2.506,2.506,0,0,0,.6,1.747,2.035,2.035,0,0,0,1.586.666,1.993,1.993,0,0,0,1.563-.666,2.62,2.62,0,0,0,.594-1.809V11.616a2.535,2.535,0,0,0-.6-1.755,2.024,2.024,0,0,0-1.586-.674,1.966,1.966,0,0,0-1.57.681,2.655,2.655,0,0,0-.586,1.794Zm8.281,11.6a4.472,4.472,0,0,1,1.359-3.391,5.3,5.3,0,0,1,6.945,0,4.623,4.623,0,0,1,1.352,3.5v1.109a4.57,4.57,0,0,1-1.3,3.352,4.688,4.688,0,0,1-3.492,1.32,4.827,4.827,0,0,1-3.523-1.3,4.6,4.6,0,0,1-1.336-3.445Zm2.656,1.2a2.492,2.492,0,0,0,.617,1.742,2.045,2.045,0,0,0,1.586.68,1.983,1.983,0,0,0,1.57-.648,2.666,2.666,0,0,0,.57-1.82V24.406a2.469,2.469,0,0,0-.609-1.75,2.2,2.2,0,0,0-3.133,0,2.581,2.581,0,0,0-.6,1.813ZM50.578,28.3l-1.953-1.125L59.734,9.391l1.953,1.125Z" transform="translate(4859 1854)" fill="#fff"/><path d="M0,0H250a6,6,0,0,1,6,6V42a6,6,0,0,1-6,6H0a0,0,0,0,1,0,0V0A0,0,0,0,1,0,0Z" transform="translate(4638 1937)" fill="#c02"/><path d="M6.094,16.891H8.406a4.138,4.138,0,0,0,2.773-.906A3.233,3.233,0,0,0,12.2,13.406a3.523,3.523,0,0,0-.852-2.523,3.427,3.427,0,0,0-2.6-.9,3.625,3.625,0,0,0-2.516.883,2.95,2.95,0,0,0-.984,2.3h-3.8a5.747,5.747,0,0,1,.93-3.187A6.246,6.246,0,0,1,4.977,7.742a8.449,8.449,0,0,1,3.727-.8,7.825,7.825,0,0,1,5.352,1.711A6,6,0,0,1,16,13.406a4.835,4.835,0,0,1-.977,2.883A6.124,6.124,0,0,1,12.5,18.328a5.582,5.582,0,0,1,2.852,2.016,5.519,5.519,0,0,1,.977,3.281,6.11,6.11,0,0,1-2.1,4.875A8.159,8.159,0,0,1,8.7,30.313a8.1,8.1,0,0,1-5.375-1.75,5.763,5.763,0,0,1-2.094-4.656h3.8a3.176,3.176,0,0,0,1.008,2.438,3.822,3.822,0,0,0,2.711.938,3.942,3.942,0,0,0,2.781-.937,3.517,3.517,0,0,0,1.016-2.719,3.553,3.553,0,0,0-1.062-2.766,4.543,4.543,0,0,0-3.156-.969H6.094ZM20.672,35.125l-2.047-1.219a11.041,11.041,0,0,0,1.242-2.477,7.39,7.39,0,0,0,.352-2.148V26.328h3.422l-.016,2.734a7.621,7.621,0,0,1-.836,3.32A8.248,8.248,0,0,1,20.672,35.125ZM42.063,9.359,32.969,30H28.984l9.078-19.7H26.3V7.25H42.063Zm2.891,2.266a4.566,4.566,0,0,1,1.328-3.383,5.289,5.289,0,0,1,6.992,0,4.68,4.68,0,0,1,1.32,3.461v1.125a4.534,4.534,0,0,1-1.32,3.359A4.716,4.716,0,0,1,49.8,17.5a4.865,4.865,0,0,1-3.477-1.289,4.55,4.55,0,0,1-1.367-3.477Zm2.656,1.2a2.506,2.506,0,0,0,.6,1.747,2.035,2.035,0,0,0,1.586.666,1.993,1.993,0,0,0,1.563-.666,2.62,2.62,0,0,0,.594-1.809V11.616a2.535,2.535,0,0,0-.6-1.755,2.024,2.024,0,0,0-1.586-.674,1.966,1.966,0,0,0-1.57.681,2.655,2.655,0,0,0-.586,1.794Zm8.281,11.6a4.472,4.472,0,0,1,1.359-3.391,5.3,5.3,0,0,1,6.945,0,4.623,4.623,0,0,1,1.352,3.5v1.109a4.57,4.57,0,0,1-1.3,3.352,4.688,4.688,0,0,1-3.492,1.32,4.827,4.827,0,0,1-3.523-1.3,4.6,4.6,0,0,1-1.336-3.445Zm2.656,1.2a2.492,2.492,0,0,0,.617,1.742,2.045,2.045,0,0,0,1.586.68,1.983,1.983,0,0,0,1.57-.648,2.666,2.666,0,0,0,.57-1.82V24.406a2.469,2.469,0,0,0-.609-1.75,2.2,2.2,0,0,0-3.133,0,2.581,2.581,0,0,0-.6,1.813ZM50.578,28.3l-1.953-1.125L59.734,9.391l1.953,1.125Z" transform="translate(4811 1942)" fill="#fff"/><path d="M0,0H87a6,6,0,0,1,6,6V42a6,6,0,0,1-6,6H0a0,0,0,0,1,0,0V0A0,0,0,0,1,0,0Z" transform="translate(4638 2025)" fill="#c02"/><path d="M6,0H93a0,0,0,0,1,0,0V48a0,0,0,0,1,0,0H6a6,6,0,0,1-6-6V6A6,6,0,0,1,6,0Z" transform="translate(4545 2113)" fill="#c02"/><path d="M11.984,30H8.2V11.723l-5.578,1.9V10.438L11.5,7.172h.484Zm8.688,5.125-2.047-1.219a11.041,11.041,0,0,0,1.242-2.477,7.39,7.39,0,0,0,.352-2.148V26.328h3.422l-.016,2.734a7.621,7.621,0,0,1-.836,3.32A8.248,8.248,0,0,1,20.672,35.125ZM39.766,21.891h2.828v3.047H39.766V30h-3.8V24.938H26.141l-.109-2.312L35.844,7.25h3.922Zm-9.75,0h5.953v-9.5l-.281.5ZM44.953,11.625a4.566,4.566,0,0,1,1.328-3.383,5.289,5.289,0,0,1,6.992,0,4.68,4.68,0,0,1,1.32,3.461v1.125a4.534,4.534,0,0,1-1.32,3.359A4.716,4.716,0,0,1,49.8,17.5a4.865,4.865,0,0,1-3.477-1.289,4.55,4.55,0,0,1-1.367-3.477Zm2.656,1.2a2.506,2.506,0,0,0,.6,1.747,2.035,2.035,0,0,0,1.586.666,1.993,1.993,0,0,0,1.563-.666,2.62,2.62,0,0,0,.594-1.809V11.616a2.535,2.535,0,0,0-.6-1.755,2.024,2.024,0,0,0-1.586-.674,1.966,1.966,0,0,0-1.57.681,2.655,2.655,0,0,0-.586,1.794Zm8.281,11.6a4.472,4.472,0,0,1,1.359-3.391,5.3,5.3,0,0,1,6.945,0,4.623,4.623,0,0,1,1.352,3.5v1.109a4.57,4.57,0,0,1-1.3,3.352,4.688,4.688,0,0,1-3.492,1.32,4.827,4.827,0,0,1-3.523-1.3,4.6,4.6,0,0,1-1.336-3.445Zm2.656,1.2a2.492,2.492,0,0,0,.617,1.742,2.045,2.045,0,0,0,1.586.68,1.983,1.983,0,0,0,1.57-.648,2.666,2.666,0,0,0,.57-1.82V24.406a2.469,2.469,0,0,0-.609-1.75,2.2,2.2,0,0,0-3.133,0,2.581,2.581,0,0,0-.6,1.813ZM50.578,28.3l-1.953-1.125L59.734,9.391l1.953,1.125Z" transform="translate(4651 2030)" fill="#fff"/><path d="M9.313,21.859h-8.2V18.8h8.2ZM22.484,30H18.7V11.723l-5.578,1.9V10.438L22,7.172h.484Zm8.688,5.125-2.047-1.219a11.041,11.041,0,0,0,1.242-2.477,7.39,7.39,0,0,0,.352-2.148V26.328h3.422l-.016,2.734a7.621,7.621,0,0,1-.836,3.32A8.248,8.248,0,0,1,31.172,35.125ZM50.266,21.891h2.828v3.047H50.266V30h-3.8V24.938H36.641l-.109-2.312L46.344,7.25h3.922Zm-9.75,0h5.953v-9.5l-.281.5ZM55.453,11.625a4.566,4.566,0,0,1,1.328-3.383,5.289,5.289,0,0,1,6.992,0,4.68,4.68,0,0,1,1.32,3.461v1.125a4.534,4.534,0,0,1-1.32,3.359A4.716,4.716,0,0,1,60.3,17.5a4.865,4.865,0,0,1-3.477-1.289,4.55,4.55,0,0,1-1.367-3.477Zm2.656,1.2a2.506,2.506,0,0,0,.6,1.747,2.035,2.035,0,0,0,1.586.666,1.993,1.993,0,0,0,1.563-.666,2.62,2.62,0,0,0,.594-1.809V11.616a2.535,2.535,0,0,0-.6-1.755,2.024,2.024,0,0,0-1.586-.674,1.966,1.966,0,0,0-1.57.681,2.655,2.655,0,0,0-.586,1.794Zm8.281,11.6a4.472,4.472,0,0,1,1.359-3.391,5.3,5.3,0,0,1,6.945,0,4.623,4.623,0,0,1,1.352,3.5v1.109a4.57,4.57,0,0,1-1.3,3.352,4.688,4.688,0,0,1-3.492,1.32,4.827,4.827,0,0,1-3.523-1.3,4.6,4.6,0,0,1-1.336-3.445Zm2.656,1.2a2.492,2.492,0,0,0,.617,1.742,2.045,2.045,0,0,0,1.586.68,1.983,1.983,0,0,0,1.57-.648,2.666,2.666,0,0,0,.57-1.82V24.406a2.469,2.469,0,0,0-.609-1.75,2.2,2.2,0,0,0-3.133,0,2.581,2.581,0,0,0-.6,1.813ZM61.078,28.3l-1.953-1.125L70.234,9.391l1.953,1.125Z" transform="translate(4552 2118)" fill="#fff"/></g></g><path d="M11.4,18.535H4.254L2.648,23H.328L6.844,5.938H8.813L15.34,23H13.031ZM4.934,16.7h5.8L7.828,8.715Zm23.1.105a7.539,7.539,0,0,1-1.336,4.67,4.269,4.269,0,0,1-3.586,1.764,4.42,4.42,0,0,1-3.715-1.7L19.289,23H17.3V5h2.168v6.715a4.4,4.4,0,0,1,3.621-1.629,4.3,4.3,0,0,1,3.627,1.746,7.766,7.766,0,0,1,1.318,4.781Zm-2.168-.246a5.858,5.858,0,0,0-.855-3.422,2.832,2.832,0,0,0-2.461-1.207,3.183,3.183,0,0,0-3.082,1.992V19.4a3.272,3.272,0,0,0,3.105,1.992A2.816,2.816,0,0,0,25,20.188,6.23,6.23,0,0,0,25.863,16.555Zm16.125,3.457,2.438-9.691h2.168L42.9,23H41.145l-3.082-9.609-3,9.609H33.3l-3.68-12.68h2.156l2.5,9.492L37.23,10.32h1.746Zm12.07,3.223a5.54,5.54,0,0,1-4.2-1.693,6.285,6.285,0,0,1-1.617-4.529v-.4a7.609,7.609,0,0,1,.721-3.369,5.622,5.622,0,0,1,2.016-2.32,5.068,5.068,0,0,1,2.807-.838,4.749,4.749,0,0,1,3.844,1.629A7.053,7.053,0,0,1,59,16.379v.9h-8.59a4.507,4.507,0,0,0,1.1,3.029,3.444,3.444,0,0,0,2.666,1.154A3.776,3.776,0,0,0,56.121,21a4.888,4.888,0,0,0,1.395-1.242l1.324,1.031A5.325,5.325,0,0,1,54.059,23.234Zm-.27-11.367a2.892,2.892,0,0,0-2.2.955,4.642,4.642,0,0,0-1.1,2.678h6.352v-.164a4.129,4.129,0,0,0-.891-2.561A2.723,2.723,0,0,0,53.789,11.867ZM63.867,23H61.7V10.32h2.168ZM61.523,6.957a1.294,1.294,0,0,1,.322-.891A1.21,1.21,0,0,1,62.8,5.7a1.229,1.229,0,0,1,.961.363,1.28,1.28,0,0,1,.328.891,1.238,1.238,0,0,1-.328.879,1.251,1.251,0,0,1-.961.352,1.232,1.232,0,0,1-.955-.352A1.251,1.251,0,0,1,61.523,6.957Zm10.9,14.508a3.123,3.123,0,0,0,2.027-.7A2.474,2.474,0,0,0,75.41,19h2.051a3.931,3.931,0,0,1-.75,2.074,4.94,4.94,0,0,1-1.846,1.57,5.326,5.326,0,0,1-2.443.586A5.223,5.223,0,0,1,68.3,21.506a6.884,6.884,0,0,1-1.529-4.729v-.363a7.634,7.634,0,0,1,.68-3.293A5.177,5.177,0,0,1,69.4,10.883a5.543,5.543,0,0,1,3.006-.8,5.085,5.085,0,0,1,3.545,1.277,4.565,4.565,0,0,1,1.506,3.316H75.41a2.988,2.988,0,0,0-.932-2.021,2.9,2.9,0,0,0-2.068-.791,3.034,3.034,0,0,0-2.561,1.189,5.586,5.586,0,0,0-.908,3.439v.41a5.475,5.475,0,0,0,.9,3.375A3.049,3.049,0,0,0,72.422,21.465Zm9.645-9.609a4.609,4.609,0,0,1,3.75-1.77q4.02,0,4.055,4.535V23H87.7V14.609a2.919,2.919,0,0,0-.627-2.027,2.512,2.512,0,0,0-1.916-.656,3.129,3.129,0,0,0-1.852.563,3.82,3.82,0,0,0-1.242,1.477V23H79.9V5h2.168Zm18.879,9.891a4.6,4.6,0,0,1-3.715,1.488,3.942,3.942,0,0,1-3.088-1.178A5.1,5.1,0,0,1,93.07,18.57V10.32h2.168v8.191q0,2.883,2.344,2.883a3.245,3.245,0,0,0,3.3-1.852V10.32h2.168V23h-2.062ZM108.4,10.32l.07,1.594a4.621,4.621,0,0,1,3.8-1.828q4.02,0,4.055,4.535V23h-2.168V14.609a2.919,2.919,0,0,0-.627-2.027,2.512,2.512,0,0,0-1.916-.656,3.129,3.129,0,0,0-1.852.563,3.82,3.82,0,0,0-1.242,1.477V23h-2.168V10.32Zm10.676,6.234a7.452,7.452,0,0,1,1.371-4.717,4.727,4.727,0,0,1,7.254-.111l.105-1.406h1.98V22.7a5.158,5.158,0,0,1-1.459,3.879,5.384,5.384,0,0,1-3.92,1.418,6.521,6.521,0,0,1-2.684-.586,4.62,4.62,0,0,1-2-1.605l1.125-1.3a4.239,4.239,0,0,0,3.41,1.723,3.322,3.322,0,0,0,2.467-.891,3.4,3.4,0,0,0,.885-2.508v-1.09a4.456,4.456,0,0,1-3.551,1.5,4.331,4.331,0,0,1-3.6-1.793A7.835,7.835,0,0,1,119.074,16.555Zm2.18.246a5.685,5.685,0,0,0,.879,3.369,2.856,2.856,0,0,0,2.461,1.225,3.176,3.176,0,0,0,3.012-1.863V13.742a3.213,3.213,0,0,0-2.988-1.816,2.882,2.882,0,0,0-2.473,1.23A6.192,6.192,0,0,0,121.254,16.8Zm27.5,1.734h-7.148L140,23h-2.32L144.2,5.938h1.969L152.7,23h-2.309Zm-6.469-1.84h5.8l-2.906-7.98ZM156.7,10.32l.07,1.594a4.621,4.621,0,0,1,3.8-1.828q4.02,0,4.055,4.535V23h-2.168V14.609a2.919,2.919,0,0,0-.627-2.027,2.512,2.512,0,0,0-1.916-.656,3.129,3.129,0,0,0-1.852.563,3.82,3.82,0,0,0-1.242,1.477V23h-2.168V10.32Zm14.133-3.07v3.07H173.2V12h-2.367v7.873a1.76,1.76,0,0,0,.316,1.144,1.332,1.332,0,0,0,1.078.381,5.249,5.249,0,0,0,1.031-.141V23a6.322,6.322,0,0,1-1.664.233,2.7,2.7,0,0,1-2.191-.879,3.776,3.776,0,0,1-.738-2.5V12h-2.309V10.32h2.309V7.25ZM181,23.234a5.54,5.54,0,0,1-4.2-1.693,6.285,6.285,0,0,1-1.617-4.529v-.4a7.609,7.609,0,0,1,.721-3.369,5.622,5.622,0,0,1,2.016-2.32,5.068,5.068,0,0,1,2.807-.838,4.749,4.749,0,0,1,3.844,1.629,7.053,7.053,0,0,1,1.371,4.664v.9h-8.59a4.507,4.507,0,0,0,1.1,3.029,3.444,3.444,0,0,0,2.666,1.154A3.776,3.776,0,0,0,183.059,21a4.888,4.888,0,0,0,1.395-1.242l1.324,1.031A5.325,5.325,0,0,1,181,23.234Zm-.27-11.367a2.892,2.892,0,0,0-2.2.955,4.642,4.642,0,0,0-1.1,2.678h6.352v-.164a4.129,4.129,0,0,0-.891-2.561A2.723,2.723,0,0,0,180.727,11.867ZM190.8,23h-2.168V10.32H190.8ZM188.461,6.957a1.294,1.294,0,0,1,.322-.891,1.21,1.21,0,0,1,.955-.363,1.229,1.229,0,0,1,.961.363,1.28,1.28,0,0,1,.328.891,1.238,1.238,0,0,1-.328.879,1.251,1.251,0,0,1-.961.352,1.232,1.232,0,0,1-.955-.352A1.251,1.251,0,0,1,188.461,6.957ZM196.629,23h-2.168V5h2.168ZM209.285,5.938l5.578,13.922,5.578-13.922h2.918V23h-2.25V16.355l.211-7.172L215.719,23H214l-5.59-13.781.223,7.137V23h-2.25V5.938Zm17.133,10.605a7.489,7.489,0,0,1,.732-3.352,5.464,5.464,0,0,1,2.039-2.3,5.551,5.551,0,0,1,2.982-.809,5.347,5.347,0,0,1,4.189,1.793,6.9,6.9,0,0,1,1.6,4.77V16.8a7.555,7.555,0,0,1-.709,3.322,5.383,5.383,0,0,1-2.027,2.291,5.614,5.614,0,0,1-3.029.82,5.334,5.334,0,0,1-4.178-1.793,6.863,6.863,0,0,1-1.6-4.746Zm2.18.258a5.424,5.424,0,0,0,.979,3.387,3.316,3.316,0,0,0,5.244-.018,5.932,5.932,0,0,0,.973-3.627,5.415,5.415,0,0,0-.99-3.381,3.148,3.148,0,0,0-2.631-1.295,3.113,3.113,0,0,0-2.59,1.277A5.888,5.888,0,0,0,228.6,16.8Zm22.816,0a7.539,7.539,0,0,1-1.336,4.67,4.269,4.269,0,0,1-3.586,1.764,4.42,4.42,0,0,1-3.715-1.7L242.672,23H240.68V5h2.168v6.715a4.4,4.4,0,0,1,3.621-1.629,4.3,4.3,0,0,1,3.627,1.746,7.766,7.766,0,0,1,1.318,4.781Zm-2.168-.246a5.858,5.858,0,0,0-.855-3.422,2.832,2.832,0,0,0-2.461-1.207,3.183,3.183,0,0,0-3.082,1.992V19.4a3.272,3.272,0,0,0,3.105,1.992,2.816,2.816,0,0,0,2.426-1.207A6.23,6.23,0,0,0,249.246,16.555ZM256.5,23h-2.168V10.32H256.5ZM254.156,6.957a1.294,1.294,0,0,1,.322-.891,1.21,1.21,0,0,1,.955-.363,1.229,1.229,0,0,1,.961.363,1.28,1.28,0,0,1,.328.891,1.238,1.238,0,0,1-.328.879,1.251,1.251,0,0,1-.961.352,1.232,1.232,0,0,1-.955-.352A1.251,1.251,0,0,1,254.156,6.957ZM262.324,23h-2.168V5h2.168Zm8.73.234a5.54,5.54,0,0,1-4.2-1.693,6.285,6.285,0,0,1-1.617-4.529v-.4a7.609,7.609,0,0,1,.721-3.369,5.622,5.622,0,0,1,2.016-2.32,5.068,5.068,0,0,1,2.807-.838,4.749,4.749,0,0,1,3.844,1.629A7.053,7.053,0,0,1,276,16.379v.9h-8.59a4.507,4.507,0,0,0,1.1,3.029,3.444,3.444,0,0,0,2.666,1.154A3.776,3.776,0,0,0,273.117,21a4.888,4.888,0,0,0,1.395-1.242l1.324,1.031A5.325,5.325,0,0,1,271.055,23.234Zm-.27-11.367a2.892,2.892,0,0,0-2.2.955,4.642,4.642,0,0,0-1.1,2.678h6.352v-.164a4.129,4.129,0,0,0-.891-2.561A2.723,2.723,0,0,0,270.785,11.867Z" transform="translate(273 688)" fill="#bbb"/><path d="M45.453,17.744,43.02,20.273V27H40.395V7.094H43.02v9.844l8.846-9.844h3.172L47.2,15.885,55.652,27H52.508Zm14.178-5.537.082,1.859a5.391,5.391,0,0,1,4.43-2.133q4.689,0,4.73,5.291V27H66.344V17.211a3.405,3.405,0,0,0-.731-2.365,2.931,2.931,0,0,0-2.235-.766,3.65,3.65,0,0,0-2.16.656,4.456,4.456,0,0,0-1.449,1.723V27H57.238V12.207Zm12.387,7.26a8.737,8.737,0,0,1,.854-3.91,6.374,6.374,0,0,1,2.379-2.68,6.476,6.476,0,0,1,3.479-.943,6.238,6.238,0,0,1,4.888,2.092,8.048,8.048,0,0,1,1.866,5.564v.178a8.814,8.814,0,0,1-.827,3.876,6.281,6.281,0,0,1-2.365,2.673,6.55,6.55,0,0,1-3.534.957,6.223,6.223,0,0,1-4.874-2.092,8.007,8.007,0,0,1-1.866-5.537Zm2.543.3A6.329,6.329,0,0,0,75.7,23.719,3.869,3.869,0,0,0,81.82,23.7a6.92,6.92,0,0,0,1.135-4.231A6.318,6.318,0,0,0,81.8,15.522a3.673,3.673,0,0,0-3.069-1.511,3.632,3.632,0,0,0-3.021,1.49A6.869,6.869,0,0,0,74.561,19.768Zm27.193,3.746L104.6,12.207h2.529L102.82,27H100.77l-3.6-11.211L93.674,27H91.623L87.33,12.207h2.516l2.912,11.074L96.2,12.207H98.24Zm21.137-5.387a12.343,12.343,0,0,1-4.915-2.386,4.558,4.558,0,0,1-1.538-3.493,4.815,4.815,0,0,1,1.88-3.89,7.471,7.471,0,0,1,4.888-1.538,8.155,8.155,0,0,1,3.657.793A6.014,6.014,0,0,1,129.351,9.8a5.594,5.594,0,0,1,.882,3.049h-2.639A3.64,3.64,0,0,0,126.445,10a4.67,4.67,0,0,0-3.24-1.036,4.781,4.781,0,0,0-3.028.856A2.856,2.856,0,0,0,119.09,12.2a2.569,2.569,0,0,0,1.032,2.061,10.125,10.125,0,0,0,3.514,1.541,16.3,16.3,0,0,1,3.883,1.539A5.892,5.892,0,0,1,129.6,19.3a5.007,5.007,0,0,1,.677,2.639,4.651,4.651,0,0,1-1.887,3.876,8.044,8.044,0,0,1-5.045,1.456,9.357,9.357,0,0,1-3.828-.786,6.442,6.442,0,0,1-2.741-2.153,5.255,5.255,0,0,1-.964-3.1h2.639a3.428,3.428,0,0,0,1.333,2.851,5.613,5.613,0,0,0,3.562,1.046,5.16,5.16,0,0,0,3.186-.848,2.753,2.753,0,0,0,1.107-2.311,2.7,2.7,0,0,0-1.025-2.263A11.822,11.822,0,0,0,122.891,18.127ZM135.988,27h-2.529V12.207h2.529ZM133.254,8.283a1.51,1.51,0,0,1,.376-1.039,1.412,1.412,0,0,1,1.114-.424,1.434,1.434,0,0,1,1.121.424,1.494,1.494,0,0,1,.383,1.039,1.445,1.445,0,0,1-.383,1.025,1.46,1.46,0,0,1-1.121.41,1.437,1.437,0,0,1-1.114-.41A1.46,1.46,0,0,1,133.254,8.283Zm9.16,3.924.068,1.641a5.463,5.463,0,0,1,4.389-1.914,4.229,4.229,0,0,1,4.225,2.379,5.6,5.6,0,0,1,1.921-1.723,5.673,5.673,0,0,1,2.8-.656q4.867,0,4.949,5.154V27h-2.529V17.238a3.4,3.4,0,0,0-.725-2.372,3.191,3.191,0,0,0-2.434-.786,3.354,3.354,0,0,0-2.338.841,3.411,3.411,0,0,0-1.08,2.263V27h-2.543V17.307q0-3.227-3.158-3.227a3.384,3.384,0,0,0-3.4,2.119V27h-2.529V12.207Zm34.658,7.561a8.858,8.858,0,0,1-1.545,5.441,4.952,4.952,0,0,1-4.184,2.064,5.425,5.425,0,0,1-4.238-1.709v7.123h-2.529V12.207h2.311l.123,1.641a5.21,5.21,0,0,1,4.293-1.914,5.044,5.044,0,0,1,4.218,2.01,8.954,8.954,0,0,1,1.552,5.592Zm-2.529-.287a6.536,6.536,0,0,0-1.066-3.951,3.435,3.435,0,0,0-2.926-1.449,3.718,3.718,0,0,0-3.445,2.037v7.068a3.725,3.725,0,0,0,3.473,2.023,3.419,3.419,0,0,0,2.892-1.442A7.135,7.135,0,0,0,174.543,19.48Zm8.49,7.52H180.5V6h2.529Zm10.186.273a6.463,6.463,0,0,1-4.895-1.976,7.332,7.332,0,0,1-1.887-5.284v-.465a8.877,8.877,0,0,1,.841-3.931,6.559,6.559,0,0,1,2.352-2.707,5.912,5.912,0,0,1,3.274-.978,5.54,5.54,0,0,1,4.484,1.9,8.228,8.228,0,0,1,1.6,5.441v1.053H188.967a5.258,5.258,0,0,0,1.278,3.534,4.018,4.018,0,0,0,3.11,1.347,4.405,4.405,0,0,0,2.27-.547,5.7,5.7,0,0,0,1.627-1.449l1.545,1.2A6.212,6.212,0,0,1,193.219,27.273ZM192.9,14.012a3.374,3.374,0,0,0-2.57,1.114,5.416,5.416,0,0,0-1.285,3.124h7.41v-.191a4.817,4.817,0,0,0-1.039-2.987A3.176,3.176,0,0,0,192.9,14.012Z" transform="translate(48 164)" fill="#111"/><path d="M137.67,17.744l-2.434,2.529V27h-2.625V7.094h2.625v9.844l8.846-9.844h3.172l-7.834,8.791L147.869,27h-3.145Zm14.178-5.537.082,1.859a5.391,5.391,0,0,1,4.43-2.133q4.689,0,4.73,5.291V27h-2.529V17.211a3.405,3.405,0,0,0-.731-2.365,2.931,2.931,0,0,0-2.235-.766,3.65,3.65,0,0,0-2.16.656,4.456,4.456,0,0,0-1.449,1.723V27h-2.529V12.207Zm12.387,7.26a8.738,8.738,0,0,1,.854-3.91,6.374,6.374,0,0,1,2.379-2.68,6.476,6.476,0,0,1,3.479-.943,6.238,6.238,0,0,1,4.888,2.092A8.048,8.048,0,0,1,177.7,19.59v.178a8.814,8.814,0,0,1-.827,3.876,6.281,6.281,0,0,1-2.365,2.673,6.55,6.55,0,0,1-3.534.957,6.223,6.223,0,0,1-4.874-2.092,8.007,8.007,0,0,1-1.866-5.537Zm2.543.3a6.329,6.329,0,0,0,1.142,3.951,3.869,3.869,0,0,0,6.118-.021,6.92,6.92,0,0,0,1.135-4.231,6.317,6.317,0,0,0-1.155-3.944,3.673,3.673,0,0,0-3.069-1.511,3.632,3.632,0,0,0-3.021,1.49A6.869,6.869,0,0,0,166.777,19.768Zm27.193,3.746,2.844-11.307h2.529L195.037,27h-2.051l-3.6-11.211L185.891,27H183.84l-4.293-14.793h2.516l2.912,11.074,3.445-11.074h2.037Z" transform="translate(48 252)" fill="#111"/><path d="M167.98,27V7.094H173.6a9.046,9.046,0,0,1,4.594,1.148,7.767,7.767,0,0,1,3.083,3.268,10.636,10.636,0,0,1,1.1,4.867v1.271a10.673,10.673,0,0,1-1.087,4.936,7.645,7.645,0,0,1-3.1,3.254A9.622,9.622,0,0,1,173.49,27Zm2.625-17.76V24.854h2.762a6.009,6.009,0,0,0,4.724-1.888,7.8,7.8,0,0,0,1.688-5.378V16.424a7.926,7.926,0,0,0-1.593-5.275,5.668,5.668,0,0,0-4.519-1.909Zm14.67,10.227a8.738,8.738,0,0,1,.854-3.91,6.374,6.374,0,0,1,2.379-2.68,6.476,6.476,0,0,1,3.479-.943,6.238,6.238,0,0,1,4.888,2.092,8.048,8.048,0,0,1,1.866,5.564v.178a8.814,8.814,0,0,1-.827,3.876,6.281,6.281,0,0,1-2.365,2.673,6.55,6.55,0,0,1-3.534.957,6.223,6.223,0,0,1-4.874-2.092,8.007,8.007,0,0,1-1.866-5.537Zm2.543.3a6.329,6.329,0,0,0,1.142,3.951,3.869,3.869,0,0,0,6.118-.021,6.92,6.92,0,0,0,1.135-4.231,6.317,6.317,0,0,0-1.155-3.944,3.673,3.673,0,0,0-3.069-1.511,3.632,3.632,0,0,0-3.021,1.49A6.869,6.869,0,0,0,187.818,19.768Z" transform="translate(48 340)" fill="#111"/><path d="M153.912,23.514,159.6,7.094h2.871L155.088,27h-2.324L145.395,7.094h2.857ZM167.488,27h-2.529V12.207h2.529ZM164.754,8.283a1.51,1.51,0,0,1,.376-1.039,1.412,1.412,0,0,1,1.114-.424,1.434,1.434,0,0,1,1.121.424,1.494,1.494,0,0,1,.383,1.039,1.445,1.445,0,0,1-.383,1.025,1.46,1.46,0,0,1-1.121.41,1.437,1.437,0,0,1-1.114-.41A1.46,1.46,0,0,1,164.754,8.283Zm15.395,14.793a1.862,1.862,0,0,0-.772-1.593,7.435,7.435,0,0,0-2.693-.978,12.734,12.734,0,0,1-3.049-.984,4.337,4.337,0,0,1-1.668-1.367,3.27,3.27,0,0,1-.54-1.887,3.837,3.837,0,0,1,1.538-3.076,6.007,6.007,0,0,1,3.931-1.258,6.181,6.181,0,0,1,4.081,1.3,4.125,4.125,0,0,1,1.565,3.322H180a2.283,2.283,0,0,0-.882-1.791,3.3,3.3,0,0,0-2.222-.752,3.458,3.458,0,0,0-2.16.6,1.894,1.894,0,0,0-.779,1.572,1.534,1.534,0,0,0,.725,1.381,8.915,8.915,0,0,0,2.618.889,13.642,13.642,0,0,1,3.069,1.012,4.477,4.477,0,0,1,1.743,1.415,3.479,3.479,0,0,1,.567,2.017,3.786,3.786,0,0,1-1.586,3.179,6.652,6.652,0,0,1-4.115,1.2,7.449,7.449,0,0,1-3.145-.629,5.114,5.114,0,0,1-2.14-1.757,4.234,4.234,0,0,1-.772-2.44h2.529a2.619,2.619,0,0,0,1.019,2.017,3.951,3.951,0,0,0,2.509.745,4.079,4.079,0,0,0,2.3-.581A1.785,1.785,0,0,0,180.148,23.076ZM188.721,27h-2.529V12.207h2.529ZM185.986,8.283a1.51,1.51,0,0,1,.376-1.039,1.412,1.412,0,0,1,1.114-.424,1.434,1.434,0,0,1,1.121.424,1.494,1.494,0,0,1,.383,1.039,1.445,1.445,0,0,1-.383,1.025,1.46,1.46,0,0,1-1.121.41,1.437,1.437,0,0,1-1.114-.41A1.46,1.46,0,0,1,185.986,8.283Zm10.213.342v3.582h2.762v1.955H196.2v9.185a2.053,2.053,0,0,0,.369,1.335,1.554,1.554,0,0,0,1.258.445,6.124,6.124,0,0,0,1.2-.164V27a7.376,7.376,0,0,1-1.941.272,3.15,3.15,0,0,1-2.557-1.025,4.405,4.405,0,0,1-.861-2.912V14.162h-2.693V12.207h2.693V8.625Z" transform="translate(48 428)" fill="#111"/><path d="M106.43,20.725l.383,2.625.561-2.365,3.938-13.891h2.215l3.842,13.891.547,2.406.424-2.68,3.09-13.617h2.639L119.24,27h-2.393l-4.1-14.506-.314-1.518-.314,1.518L107.865,27h-2.393L100.66,7.094h2.625ZM132.3,27.273A6.463,6.463,0,0,1,127.4,25.3a7.332,7.332,0,0,1-1.887-5.284v-.465a8.877,8.877,0,0,1,.841-3.931,6.559,6.559,0,0,1,2.352-2.707,5.912,5.912,0,0,1,3.274-.978,5.54,5.54,0,0,1,4.484,1.9,8.228,8.228,0,0,1,1.6,5.441v1.053H128.045a5.258,5.258,0,0,0,1.278,3.534,4.018,4.018,0,0,0,3.11,1.347,4.405,4.405,0,0,0,2.27-.547,5.7,5.7,0,0,0,1.627-1.449l1.545,1.2A6.212,6.212,0,0,1,132.3,27.273Zm-.314-13.262a3.374,3.374,0,0,0-2.57,1.114,5.416,5.416,0,0,0-1.285,3.124h7.41v-.191a4.817,4.817,0,0,0-1.039-2.987A3.176,3.176,0,0,0,131.982,14.012Zm21.533,5.756a8.8,8.8,0,0,1-1.559,5.448,4.98,4.98,0,0,1-4.184,2.058,5.157,5.157,0,0,1-4.334-1.982L143.316,27h-2.324V6h2.529v7.834a5.128,5.128,0,0,1,4.225-1.9,5.01,5.01,0,0,1,4.231,2.037,9.06,9.06,0,0,1,1.538,5.578Zm-2.529-.287a6.835,6.835,0,0,0-1-3.992,3.3,3.3,0,0,0-2.871-1.408,3.713,3.713,0,0,0-3.6,2.324v6.4a3.817,3.817,0,0,0,3.623,2.324,3.286,3.286,0,0,0,2.83-1.408A7.268,7.268,0,0,0,150.986,19.48Zm14.328,3.6a1.862,1.862,0,0,0-.772-1.593,7.435,7.435,0,0,0-2.693-.978,12.734,12.734,0,0,1-3.049-.984,4.337,4.337,0,0,1-1.668-1.367,3.27,3.27,0,0,1-.54-1.887,3.837,3.837,0,0,1,1.538-3.076,6.007,6.007,0,0,1,3.931-1.258,6.181,6.181,0,0,1,4.081,1.3,4.125,4.125,0,0,1,1.565,3.322h-2.543a2.283,2.283,0,0,0-.882-1.791,3.3,3.3,0,0,0-2.222-.752,3.458,3.458,0,0,0-2.16.6,1.894,1.894,0,0,0-.779,1.572,1.534,1.534,0,0,0,.725,1.381,8.915,8.915,0,0,0,2.618.889,13.642,13.642,0,0,1,3.069,1.012,4.477,4.477,0,0,1,1.743,1.415,3.479,3.479,0,0,1,.567,2.017,3.786,3.786,0,0,1-1.586,3.179,6.652,6.652,0,0,1-4.115,1.2A7.449,7.449,0,0,1,159,26.645a5.114,5.114,0,0,1-2.14-1.757,4.234,4.234,0,0,1-.772-2.44h2.529a2.619,2.619,0,0,0,1.019,2.017,3.951,3.951,0,0,0,2.509.745,4.079,4.079,0,0,0,2.3-.581A1.785,1.785,0,0,0,165.314,23.076ZM173.887,27h-2.529V12.207h2.529ZM171.152,8.283a1.51,1.51,0,0,1,.376-1.039,1.412,1.412,0,0,1,1.114-.424,1.434,1.434,0,0,1,1.121.424,1.494,1.494,0,0,1,.383,1.039,1.445,1.445,0,0,1-.383,1.025,1.46,1.46,0,0,1-1.121.41,1.437,1.437,0,0,1-1.114-.41A1.46,1.46,0,0,1,171.152,8.283Zm10.213.342v3.582h2.762v1.955h-2.762v9.185a2.053,2.053,0,0,0,.369,1.335,1.554,1.554,0,0,0,1.258.445,6.124,6.124,0,0,0,1.2-.164V27a7.376,7.376,0,0,1-1.941.272,3.15,3.15,0,0,1-2.557-1.025,4.405,4.405,0,0,1-.861-2.912V14.162h-2.693V12.207h2.693V8.625Zm11.854,18.648a6.463,6.463,0,0,1-4.895-1.976,7.332,7.332,0,0,1-1.887-5.284v-.465a8.877,8.877,0,0,1,.841-3.931,6.559,6.559,0,0,1,2.352-2.707,5.912,5.912,0,0,1,3.274-.978,5.54,5.54,0,0,1,4.484,1.9,8.228,8.228,0,0,1,1.6,5.441v1.053H188.967a5.258,5.258,0,0,0,1.278,3.534,4.018,4.018,0,0,0,3.11,1.347,4.405,4.405,0,0,0,2.27-.547,5.7,5.7,0,0,0,1.627-1.449l1.545,1.2A6.212,6.212,0,0,1,193.219,27.273ZM192.9,14.012a3.374,3.374,0,0,0-2.57,1.114,5.416,5.416,0,0,0-1.285,3.124h7.41v-.191a4.817,4.817,0,0,0-1.039-2.987A3.176,3.176,0,0,0,192.9,14.012Z" transform="translate(48 516)" fill="#111"/></svg>